<mxfile host="app.diagrams.net" modified="2024-04-26T20:34:33.924Z" agent="Mozilla/5.0 (Windows NT 10.0; Win64; x64) AppleWebKit/537.36 (KHTML, like Gecko) Chrome/124.0.0.0 Safari/537.36" etag="5HYBMlV--j0mHYbAYbOk" version="24.3.1" type="device">
  <diagram name="Page-1" id="PWAn2hOiBMULmwpim8Mc">
    <mxGraphModel dx="1313" dy="1753" grid="1" gridSize="10" guides="1" tooltips="1" connect="1" arrows="1" fold="1" page="1" pageScale="1" pageWidth="850" pageHeight="1100" math="0" shadow="0">
      <root>
        <mxCell id="0" />
        <mxCell id="1" parent="0" />
        <mxCell id="xq5jCsLg9rPU4HQZgbew-1" value="Start" style="strokeWidth=2;html=1;shape=mxgraph.flowchart.terminator;whiteSpace=wrap;" parent="1" vertex="1">
          <mxGeometry x="50" y="-1080" width="100" height="60" as="geometry" />
        </mxCell>
        <mxCell id="xq5jCsLg9rPU4HQZgbew-5" value="products" style="strokeWidth=2;html=1;shape=mxgraph.flowchart.display;whiteSpace=wrap;" parent="1" vertex="1">
          <mxGeometry x="30" y="-650" width="100" height="60" as="geometry" />
        </mxCell>
        <mxCell id="HwHLMF4vyIJIg0-yz5uZ-16" value="" style="edgeStyle=orthogonalEdgeStyle;rounded=0;orthogonalLoop=1;jettySize=auto;html=1;" edge="1" parent="1" source="xq5jCsLg9rPU4HQZgbew-6" target="HwHLMF4vyIJIg0-yz5uZ-15">
          <mxGeometry relative="1" as="geometry" />
        </mxCell>
        <mxCell id="xq5jCsLg9rPU4HQZgbew-6" value="log out" style="strokeWidth=2;html=1;shape=mxgraph.flowchart.display;whiteSpace=wrap;" parent="1" vertex="1">
          <mxGeometry x="40" y="-90" width="100" height="60" as="geometry" />
        </mxCell>
        <mxCell id="xq5jCsLg9rPU4HQZgbew-7" value="Report" style="strokeWidth=2;html=1;shape=mxgraph.flowchart.display;whiteSpace=wrap;" parent="1" vertex="1">
          <mxGeometry x="30" y="-180" width="100" height="60" as="geometry" />
        </mxCell>
        <mxCell id="HwHLMF4vyIJIg0-yz5uZ-17" value="" style="edgeStyle=orthogonalEdgeStyle;rounded=0;orthogonalLoop=1;jettySize=auto;html=1;" edge="1" parent="1" source="xq5jCsLg9rPU4HQZgbew-8" target="xq5jCsLg9rPU4HQZgbew-7">
          <mxGeometry relative="1" as="geometry" />
        </mxCell>
        <mxCell id="xq5jCsLg9rPU4HQZgbew-8" value="purchase" style="strokeWidth=2;html=1;shape=mxgraph.flowchart.display;whiteSpace=wrap;" parent="1" vertex="1">
          <mxGeometry x="30" y="-270" width="100" height="60" as="geometry" />
        </mxCell>
        <mxCell id="xq5jCsLg9rPU4HQZgbew-9" value="Customer&lt;div&gt;order&lt;/div&gt;" style="strokeWidth=2;html=1;shape=mxgraph.flowchart.display;whiteSpace=wrap;" parent="1" vertex="1">
          <mxGeometry x="30" y="-370" width="100" height="60" as="geometry" />
        </mxCell>
        <mxCell id="xq5jCsLg9rPU4HQZgbew-10" value="supplier" style="strokeWidth=2;html=1;shape=mxgraph.flowchart.display;whiteSpace=wrap;" parent="1" vertex="1">
          <mxGeometry x="30" y="-460" width="100" height="60" as="geometry" />
        </mxCell>
        <mxCell id="xq5jCsLg9rPU4HQZgbew-11" value="Category&lt;div&gt;products&lt;/div&gt;" style="strokeWidth=2;html=1;shape=mxgraph.flowchart.display;whiteSpace=wrap;" parent="1" vertex="1">
          <mxGeometry x="30" y="-550" width="100" height="60" as="geometry" />
        </mxCell>
        <mxCell id="xq5jCsLg9rPU4HQZgbew-14" value="Updata products" style="rounded=1;whiteSpace=wrap;html=1;" parent="1" vertex="1">
          <mxGeometry x="560" y="-630" width="120" height="40" as="geometry" />
        </mxCell>
        <mxCell id="xq5jCsLg9rPU4HQZgbew-15" value="Detail&lt;div&gt;category products&lt;/div&gt;" style="shape=parallelogram;perimeter=parallelogramPerimeter;whiteSpace=wrap;html=1;fixedSize=1;" parent="1" vertex="1">
          <mxGeometry x="550" y="-575" width="120" height="30" as="geometry" />
        </mxCell>
        <mxCell id="xq5jCsLg9rPU4HQZgbew-16" value="Detail&lt;div&gt;products&lt;/div&gt;" style="shape=parallelogram;perimeter=parallelogramPerimeter;whiteSpace=wrap;html=1;fixedSize=1;" parent="1" vertex="1">
          <mxGeometry x="530" y="-700" width="120" height="40" as="geometry" />
        </mxCell>
        <mxCell id="xq5jCsLg9rPU4HQZgbew-17" value="Dashboard" style="shape=parallelogram;perimeter=parallelogramPerimeter;whiteSpace=wrap;html=1;fixedSize=1;" parent="1" vertex="1">
          <mxGeometry x="30" y="-750" width="120" height="60" as="geometry" />
        </mxCell>
        <mxCell id="xq5jCsLg9rPU4HQZgbew-18" value="View , add &amp;amp; delete&lt;div&gt;product&lt;/div&gt;" style="shape=parallelogram;perimeter=parallelogramPerimeter;whiteSpace=wrap;html=1;fixedSize=1;" parent="1" vertex="1">
          <mxGeometry x="200" y="-630" width="130" height="40" as="geometry" />
        </mxCell>
        <mxCell id="xq5jCsLg9rPU4HQZgbew-19" value="View &amp;amp;add&lt;div&gt;category&lt;/div&gt;&lt;div&gt;Products&lt;/div&gt;" style="shape=parallelogram;perimeter=parallelogramPerimeter;whiteSpace=wrap;html=1;fixedSize=1;" parent="1" vertex="1">
          <mxGeometry x="200" y="-550" width="120" height="60" as="geometry" />
        </mxCell>
        <mxCell id="xq5jCsLg9rPU4HQZgbew-20" value="view process" style="rhombus;whiteSpace=wrap;html=1;" parent="1" vertex="1">
          <mxGeometry x="383" y="-645" width="85" height="70" as="geometry" />
        </mxCell>
        <mxCell id="xq5jCsLg9rPU4HQZgbew-21" value="View process" style="rhombus;whiteSpace=wrap;html=1;" parent="1" vertex="1">
          <mxGeometry x="400" y="-550" width="80" height="80" as="geometry" />
        </mxCell>
        <mxCell id="xq5jCsLg9rPU4HQZgbew-22" value="View &amp;amp; add&lt;div&gt;supplier&lt;/div&gt;" style="shape=parallelogram;perimeter=parallelogramPerimeter;whiteSpace=wrap;html=1;fixedSize=1;" parent="1" vertex="1">
          <mxGeometry x="200" y="-450" width="120" height="60" as="geometry" />
        </mxCell>
        <mxCell id="xq5jCsLg9rPU4HQZgbew-23" value="View process" style="rhombus;whiteSpace=wrap;html=1;" parent="1" vertex="1">
          <mxGeometry x="388" y="-440" width="80" height="80" as="geometry" />
        </mxCell>
        <mxCell id="xq5jCsLg9rPU4HQZgbew-24" value="view&amp;nbsp;&lt;div&gt;customer&lt;/div&gt;&lt;div&gt;, purchase , supplier , products &amp;amp; orders&lt;/div&gt;" style="shape=parallelogram;perimeter=parallelogramPerimeter;whiteSpace=wrap;html=1;fixedSize=1;" parent="1" vertex="1">
          <mxGeometry x="220" y="-180" width="120" height="60" as="geometry" />
        </mxCell>
        <mxCell id="HwHLMF4vyIJIg0-yz5uZ-3" value="" style="edgeStyle=orthogonalEdgeStyle;rounded=0;orthogonalLoop=1;jettySize=auto;html=1;exitX=1;exitY=0.5;exitDx=0;exitDy=0;" edge="1" parent="1" source="HwHLMF4vyIJIg0-yz5uZ-2" target="xq5jCsLg9rPU4HQZgbew-26">
          <mxGeometry relative="1" as="geometry">
            <mxPoint x="380" y="-365" as="sourcePoint" />
            <mxPoint x="330" y="-335" as="targetPoint" />
          </mxGeometry>
        </mxCell>
        <mxCell id="xq5jCsLg9rPU4HQZgbew-26" value="View&lt;div&gt;customer order&lt;/div&gt;" style="shape=parallelogram;perimeter=parallelogramPerimeter;whiteSpace=wrap;html=1;fixedSize=1;" parent="1" vertex="1">
          <mxGeometry x="360" y="-360" width="120" height="60" as="geometry" />
        </mxCell>
        <mxCell id="xq5jCsLg9rPU4HQZgbew-27" value="update supplier" style="rounded=1;whiteSpace=wrap;html=1;" parent="1" vertex="1">
          <mxGeometry x="560" y="-415" width="120" height="30" as="geometry" />
        </mxCell>
        <mxCell id="xq5jCsLg9rPU4HQZgbew-29" value="Detail&lt;div&gt;supplier&lt;/div&gt;" style="shape=parallelogram;perimeter=parallelogramPerimeter;whiteSpace=wrap;html=1;fixedSize=1;" parent="1" vertex="1">
          <mxGeometry x="560" y="-470" width="120" height="30" as="geometry" />
        </mxCell>
        <mxCell id="xq5jCsLg9rPU4HQZgbew-30" value="Login" style="shape=parallelogram;perimeter=parallelogramPerimeter;whiteSpace=wrap;html=1;fixedSize=1;" parent="1" vertex="1">
          <mxGeometry x="40" y="-990" width="120" height="60" as="geometry" />
        </mxCell>
        <mxCell id="xq5jCsLg9rPU4HQZgbew-31" value="Authentication" style="rhombus;whiteSpace=wrap;html=1;" parent="1" vertex="1">
          <mxGeometry x="50" y="-890" width="80" height="80" as="geometry" />
        </mxCell>
        <mxCell id="xq5jCsLg9rPU4HQZgbew-32" value="" style="endArrow=classic;html=1;rounded=0;exitX=0.5;exitY=1;exitDx=0;exitDy=0;exitPerimeter=0;" parent="1" source="xq5jCsLg9rPU4HQZgbew-1" edge="1">
          <mxGeometry width="50" height="50" relative="1" as="geometry">
            <mxPoint x="100" y="-1030" as="sourcePoint" />
            <mxPoint x="100" y="-990" as="targetPoint" />
          </mxGeometry>
        </mxCell>
        <mxCell id="xq5jCsLg9rPU4HQZgbew-33" value="" style="endArrow=classic;html=1;rounded=0;entryX=0.5;entryY=0;entryDx=0;entryDy=0;exitX=0.425;exitY=1.041;exitDx=0;exitDy=0;exitPerimeter=0;" parent="1" source="xq5jCsLg9rPU4HQZgbew-30" target="xq5jCsLg9rPU4HQZgbew-31" edge="1">
          <mxGeometry width="50" height="50" relative="1" as="geometry">
            <mxPoint x="50" y="-890" as="sourcePoint" />
            <mxPoint x="100" y="-940" as="targetPoint" />
          </mxGeometry>
        </mxCell>
        <mxCell id="xq5jCsLg9rPU4HQZgbew-34" value="" style="endArrow=classic;html=1;rounded=0;entryX=0.5;entryY=0;entryDx=0;entryDy=0;exitX=0.5;exitY=1;exitDx=0;exitDy=0;" parent="1" source="xq5jCsLg9rPU4HQZgbew-31" target="xq5jCsLg9rPU4HQZgbew-17" edge="1">
          <mxGeometry width="50" height="50" relative="1" as="geometry">
            <mxPoint x="10" y="-740" as="sourcePoint" />
            <mxPoint x="60" y="-790" as="targetPoint" />
          </mxGeometry>
        </mxCell>
        <mxCell id="xq5jCsLg9rPU4HQZgbew-35" value="" style="endArrow=classic;html=1;rounded=0;entryX=0.576;entryY=-0.046;entryDx=0;entryDy=0;entryPerimeter=0;exitX=0.5;exitY=1;exitDx=0;exitDy=0;" parent="1" source="xq5jCsLg9rPU4HQZgbew-17" target="xq5jCsLg9rPU4HQZgbew-5" edge="1">
          <mxGeometry width="50" height="50" relative="1" as="geometry">
            <mxPoint x="88" y="-700" as="sourcePoint" />
            <mxPoint x="125" y="-710" as="targetPoint" />
          </mxGeometry>
        </mxCell>
        <mxCell id="xq5jCsLg9rPU4HQZgbew-36" value="" style="endArrow=classic;html=1;rounded=0;entryX=0.5;entryY=0;entryDx=0;entryDy=0;entryPerimeter=0;exitX=0.5;exitY=1;exitDx=0;exitDy=0;exitPerimeter=0;" parent="1" source="xq5jCsLg9rPU4HQZgbew-5" target="xq5jCsLg9rPU4HQZgbew-11" edge="1">
          <mxGeometry width="50" height="50" relative="1" as="geometry">
            <mxPoint x="40" y="-550" as="sourcePoint" />
            <mxPoint x="90" y="-600" as="targetPoint" />
          </mxGeometry>
        </mxCell>
        <mxCell id="xq5jCsLg9rPU4HQZgbew-37" value="" style="endArrow=classic;html=1;rounded=0;exitX=0.993;exitY=0.661;exitDx=0;exitDy=0;exitPerimeter=0;entryX=0;entryY=0.5;entryDx=0;entryDy=0;" parent="1" source="xq5jCsLg9rPU4HQZgbew-5" target="xq5jCsLg9rPU4HQZgbew-18" edge="1">
          <mxGeometry width="50" height="50" relative="1" as="geometry">
            <mxPoint x="160" y="-590" as="sourcePoint" />
            <mxPoint x="210" y="-640" as="targetPoint" />
          </mxGeometry>
        </mxCell>
        <mxCell id="xq5jCsLg9rPU4HQZgbew-38" value="" style="endArrow=classic;html=1;rounded=0;entryX=0;entryY=0.5;entryDx=0;entryDy=0;exitX=1;exitY=0.5;exitDx=0;exitDy=0;" parent="1" source="xq5jCsLg9rPU4HQZgbew-18" target="xq5jCsLg9rPU4HQZgbew-20" edge="1">
          <mxGeometry width="50" height="50" relative="1" as="geometry">
            <mxPoint x="330" y="-620" as="sourcePoint" />
            <mxPoint x="380" y="-670" as="targetPoint" />
          </mxGeometry>
        </mxCell>
        <mxCell id="xq5jCsLg9rPU4HQZgbew-39" value="" style="endArrow=classic;html=1;rounded=0;entryX=0;entryY=0.5;entryDx=0;entryDy=0;" parent="1" target="xq5jCsLg9rPU4HQZgbew-14" edge="1">
          <mxGeometry width="50" height="50" relative="1" as="geometry">
            <mxPoint x="470" y="-610" as="sourcePoint" />
            <mxPoint x="520" y="-660" as="targetPoint" />
          </mxGeometry>
        </mxCell>
        <mxCell id="xq5jCsLg9rPU4HQZgbew-40" value="" style="endArrow=classic;html=1;rounded=0;exitX=1;exitY=0.5;exitDx=0;exitDy=0;exitPerimeter=0;" parent="1" source="xq5jCsLg9rPU4HQZgbew-11" target="xq5jCsLg9rPU4HQZgbew-19" edge="1">
          <mxGeometry width="50" height="50" relative="1" as="geometry">
            <mxPoint x="130" y="-510" as="sourcePoint" />
            <mxPoint x="180" y="-560" as="targetPoint" />
          </mxGeometry>
        </mxCell>
        <mxCell id="xq5jCsLg9rPU4HQZgbew-41" value="" style="endArrow=classic;html=1;rounded=0;entryX=0;entryY=0.5;entryDx=0;entryDy=0;exitX=1;exitY=0.5;exitDx=0;exitDy=0;" parent="1" source="xq5jCsLg9rPU4HQZgbew-19" target="xq5jCsLg9rPU4HQZgbew-21" edge="1">
          <mxGeometry width="50" height="50" relative="1" as="geometry">
            <mxPoint x="310" y="-510" as="sourcePoint" />
            <mxPoint x="360" y="-560" as="targetPoint" />
          </mxGeometry>
        </mxCell>
        <mxCell id="xq5jCsLg9rPU4HQZgbew-42" value="" style="endArrow=classic;html=1;rounded=0;entryX=0;entryY=0.5;entryDx=0;entryDy=0;" parent="1" target="xq5jCsLg9rPU4HQZgbew-28" edge="1">
          <mxGeometry width="50" height="50" relative="1" as="geometry">
            <mxPoint x="480" y="-510" as="sourcePoint" />
            <mxPoint x="530" y="-560" as="targetPoint" />
          </mxGeometry>
        </mxCell>
        <mxCell id="xq5jCsLg9rPU4HQZgbew-43" value="" style="endArrow=classic;html=1;rounded=0;entryX=0;entryY=0.25;entryDx=0;entryDy=0;" parent="1" target="xq5jCsLg9rPU4HQZgbew-16" edge="1">
          <mxGeometry width="50" height="50" relative="1" as="geometry">
            <mxPoint x="425" y="-645" as="sourcePoint" />
            <mxPoint x="475" y="-695" as="targetPoint" />
            <Array as="points">
              <mxPoint x="425" y="-690" />
            </Array>
          </mxGeometry>
        </mxCell>
        <mxCell id="xq5jCsLg9rPU4HQZgbew-44" value="" style="endArrow=classic;html=1;rounded=0;entryX=0;entryY=0.5;entryDx=0;entryDy=0;exitX=1;exitY=0.5;exitDx=0;exitDy=0;exitPerimeter=0;" parent="1" source="xq5jCsLg9rPU4HQZgbew-10" target="xq5jCsLg9rPU4HQZgbew-22" edge="1">
          <mxGeometry width="50" height="50" relative="1" as="geometry">
            <mxPoint x="130" y="-420" as="sourcePoint" />
            <mxPoint x="180" y="-470" as="targetPoint" />
          </mxGeometry>
        </mxCell>
        <mxCell id="xq5jCsLg9rPU4HQZgbew-45" value="" style="endArrow=classic;html=1;rounded=0;exitX=0.5;exitY=1;exitDx=0;exitDy=0;exitPerimeter=0;" parent="1" source="xq5jCsLg9rPU4HQZgbew-11" edge="1">
          <mxGeometry width="50" height="50" relative="1" as="geometry">
            <mxPoint x="30" y="-410" as="sourcePoint" />
            <mxPoint x="80" y="-460" as="targetPoint" />
          </mxGeometry>
        </mxCell>
        <mxCell id="xq5jCsLg9rPU4HQZgbew-48" value="" style="endArrow=classic;html=1;rounded=0;entryX=0;entryY=0.25;entryDx=0;entryDy=0;" parent="1" target="xq5jCsLg9rPU4HQZgbew-15" edge="1">
          <mxGeometry width="50" height="50" relative="1" as="geometry">
            <mxPoint x="441" y="-550" as="sourcePoint" />
            <mxPoint x="560" y="-593" as="targetPoint" />
            <Array as="points">
              <mxPoint x="440" y="-570" />
            </Array>
          </mxGeometry>
        </mxCell>
        <mxCell id="xq5jCsLg9rPU4HQZgbew-49" value="" style="endArrow=classic;html=1;rounded=0;entryX=0;entryY=0.25;entryDx=0;entryDy=0;exitX=0.5;exitY=0;exitDx=0;exitDy=0;" parent="1" source="xq5jCsLg9rPU4HQZgbew-23" edge="1">
          <mxGeometry width="50" height="50" relative="1" as="geometry">
            <mxPoint x="441" y="-440" as="sourcePoint" />
            <mxPoint x="574" y="-461" as="targetPoint" />
            <Array as="points">
              <mxPoint x="428" y="-461" />
            </Array>
          </mxGeometry>
        </mxCell>
        <mxCell id="xq5jCsLg9rPU4HQZgbew-50" style="edgeStyle=orthogonalEdgeStyle;rounded=0;orthogonalLoop=1;jettySize=auto;html=1;exitX=0.5;exitY=1;exitDx=0;exitDy=0;" parent="1" source="xq5jCsLg9rPU4HQZgbew-29" target="xq5jCsLg9rPU4HQZgbew-29" edge="1">
          <mxGeometry relative="1" as="geometry" />
        </mxCell>
        <mxCell id="xq5jCsLg9rPU4HQZgbew-52" value="" style="endArrow=classic;html=1;rounded=0;entryX=0.6;entryY=-0.033;entryDx=0;entryDy=0;entryPerimeter=0;exitX=0.5;exitY=1;exitDx=0;exitDy=0;exitPerimeter=0;" parent="1" edge="1" target="xq5jCsLg9rPU4HQZgbew-8" source="xq5jCsLg9rPU4HQZgbew-9">
          <mxGeometry width="50" height="50" relative="1" as="geometry">
            <mxPoint x="89.57" y="-310" as="sourcePoint" />
            <mxPoint x="89.57" y="-270" as="targetPoint" />
          </mxGeometry>
        </mxCell>
        <mxCell id="xq5jCsLg9rPU4HQZgbew-53" value="" style="endArrow=classic;html=1;rounded=0;entryX=0.5;entryY=0;entryDx=0;entryDy=0;entryPerimeter=0;" parent="1" edge="1">
          <mxGeometry width="50" height="50" relative="1" as="geometry">
            <mxPoint x="80" y="-400" as="sourcePoint" />
            <mxPoint x="79.57" y="-365" as="targetPoint" />
          </mxGeometry>
        </mxCell>
        <mxCell id="xq5jCsLg9rPU4HQZgbew-54" value="" style="endArrow=classic;html=1;rounded=0;entryX=0.59;entryY=-0.067;entryDx=0;entryDy=0;entryPerimeter=0;" parent="1" edge="1" target="xq5jCsLg9rPU4HQZgbew-7">
          <mxGeometry width="50" height="50" relative="1" as="geometry">
            <mxPoint x="90" y="-215" as="sourcePoint" />
            <mxPoint x="89.57" y="-180" as="targetPoint" />
          </mxGeometry>
        </mxCell>
        <mxCell id="xq5jCsLg9rPU4HQZgbew-55" value="" style="endArrow=classic;html=1;rounded=0;entryX=0.5;entryY=0;entryDx=0;entryDy=0;entryPerimeter=0;exitX=0.59;exitY=0.99;exitDx=0;exitDy=0;exitPerimeter=0;" parent="1" source="xq5jCsLg9rPU4HQZgbew-7" edge="1">
          <mxGeometry width="50" height="50" relative="1" as="geometry">
            <mxPoint x="90" y="-110" as="sourcePoint" />
            <mxPoint x="89.57" y="-85" as="targetPoint" />
          </mxGeometry>
        </mxCell>
        <mxCell id="xq5jCsLg9rPU4HQZgbew-58" value="" style="endArrow=classic;html=1;rounded=0;entryX=0;entryY=0.5;entryDx=0;entryDy=0;exitX=1;exitY=0.5;exitDx=0;exitDy=0;exitPerimeter=0;" parent="1" source="xq5jCsLg9rPU4HQZgbew-9" target="HwHLMF4vyIJIg0-yz5uZ-2" edge="1">
          <mxGeometry width="50" height="50" relative="1" as="geometry">
            <mxPoint x="130" y="-330" as="sourcePoint" />
            <mxPoint x="210" y="-330.43" as="targetPoint" />
          </mxGeometry>
        </mxCell>
        <mxCell id="xq5jCsLg9rPU4HQZgbew-59" value="" style="endArrow=classic;html=1;rounded=0;entryX=0;entryY=0.5;entryDx=0;entryDy=0;exitX=1;exitY=0.5;exitDx=0;exitDy=0;exitPerimeter=0;" parent="1" source="xq5jCsLg9rPU4HQZgbew-8" edge="1">
          <mxGeometry width="50" height="50" relative="1" as="geometry">
            <mxPoint x="130" y="-240.43" as="sourcePoint" />
            <mxPoint x="210" y="-240" as="targetPoint" />
          </mxGeometry>
        </mxCell>
        <mxCell id="xq5jCsLg9rPU4HQZgbew-60" value="" style="endArrow=classic;html=1;rounded=0;entryX=0;entryY=0.5;entryDx=0;entryDy=0;exitX=1;exitY=0.5;exitDx=0;exitDy=0;exitPerimeter=0;" parent="1" source="xq5jCsLg9rPU4HQZgbew-7" target="xq5jCsLg9rPU4HQZgbew-24" edge="1">
          <mxGeometry width="50" height="50" relative="1" as="geometry">
            <mxPoint x="130" y="-150.43" as="sourcePoint" />
            <mxPoint x="210" y="-150.43" as="targetPoint" />
          </mxGeometry>
        </mxCell>
        <mxCell id="xq5jCsLg9rPU4HQZgbew-61" value="" style="endArrow=classic;html=1;rounded=0;entryX=0;entryY=0.5;entryDx=0;entryDy=0;exitX=1;exitY=0.5;exitDx=0;exitDy=0;" parent="1" source="xq5jCsLg9rPU4HQZgbew-22" edge="1">
          <mxGeometry width="50" height="50" relative="1" as="geometry">
            <mxPoint x="300" y="-400.43" as="sourcePoint" />
            <mxPoint x="390" y="-400.43" as="targetPoint" />
          </mxGeometry>
        </mxCell>
        <mxCell id="xq5jCsLg9rPU4HQZgbew-62" value="" style="endArrow=classic;html=1;rounded=0;entryX=0;entryY=0.5;entryDx=0;entryDy=0;" parent="1" edge="1">
          <mxGeometry width="50" height="50" relative="1" as="geometry">
            <mxPoint x="470" y="-400.43" as="sourcePoint" />
            <mxPoint x="560" y="-400.43" as="targetPoint" />
          </mxGeometry>
        </mxCell>
        <mxCell id="xq5jCsLg9rPU4HQZgbew-64" value="" style="endArrow=classic;html=1;rounded=0;exitX=1;exitY=0.25;exitDx=0;exitDy=0;" parent="1" source="xq5jCsLg9rPU4HQZgbew-14" edge="1">
          <mxGeometry width="50" height="50" relative="1" as="geometry">
            <mxPoint x="660" y="-620" as="sourcePoint" />
            <mxPoint x="760" y="-620" as="targetPoint" />
          </mxGeometry>
        </mxCell>
        <mxCell id="xq5jCsLg9rPU4HQZgbew-65" value="" style="endArrow=classic;html=1;rounded=0;exitX=1;exitY=0.25;exitDx=0;exitDy=0;" parent="1" source="xq5jCsLg9rPU4HQZgbew-15" edge="1">
          <mxGeometry width="50" height="50" relative="1" as="geometry">
            <mxPoint x="650" y="-565.43" as="sourcePoint" />
            <mxPoint x="760" y="-565.43" as="targetPoint" />
          </mxGeometry>
        </mxCell>
        <mxCell id="xq5jCsLg9rPU4HQZgbew-66" value="" style="endArrow=classic;html=1;rounded=0;exitX=1;exitY=0.25;exitDx=0;exitDy=0;" parent="1" source="xq5jCsLg9rPU4HQZgbew-28" edge="1">
          <mxGeometry width="50" height="50" relative="1" as="geometry">
            <mxPoint x="650" y="-520.4300000000001" as="sourcePoint" />
            <mxPoint x="760" y="-520.4300000000001" as="targetPoint" />
          </mxGeometry>
        </mxCell>
        <mxCell id="xq5jCsLg9rPU4HQZgbew-67" value="" style="endArrow=classic;html=1;rounded=0;" parent="1" edge="1">
          <mxGeometry width="50" height="50" relative="1" as="geometry">
            <mxPoint x="680" y="-400" as="sourcePoint" />
            <mxPoint x="760" y="-400.43" as="targetPoint" />
          </mxGeometry>
        </mxCell>
        <mxCell id="xq5jCsLg9rPU4HQZgbew-68" value="" style="endArrow=classic;html=1;rounded=0;exitX=1;exitY=0.5;exitDx=0;exitDy=0;" parent="1" source="xq5jCsLg9rPU4HQZgbew-29" edge="1">
          <mxGeometry width="50" height="50" relative="1" as="geometry">
            <mxPoint x="650" y="-460" as="sourcePoint" />
            <mxPoint x="760" y="-455" as="targetPoint" />
          </mxGeometry>
        </mxCell>
        <mxCell id="xq5jCsLg9rPU4HQZgbew-69" value="" style="endArrow=classic;html=1;rounded=0;exitX=1;exitY=0.25;exitDx=0;exitDy=0;" parent="1" target="xq5jCsLg9rPU4HQZgbew-28" edge="1">
          <mxGeometry width="50" height="50" relative="1" as="geometry">
            <mxPoint x="650" y="-520.4300000000001" as="sourcePoint" />
            <mxPoint x="760" y="-520.4300000000001" as="targetPoint" />
          </mxGeometry>
        </mxCell>
        <mxCell id="xq5jCsLg9rPU4HQZgbew-28" value="Update category&lt;div&gt;products&lt;/div&gt;" style="rounded=1;whiteSpace=wrap;html=1;" parent="1" vertex="1">
          <mxGeometry x="560" y="-530" width="120" height="40" as="geometry" />
        </mxCell>
        <mxCell id="xq5jCsLg9rPU4HQZgbew-71" value="" style="endArrow=classic;html=1;rounded=0;fontStyle=1;exitX=1;exitY=0.5;exitDx=0;exitDy=0;entryX=0;entryY=0.5;entryDx=0;entryDy=0;" parent="1" edge="1" target="HwHLMF4vyIJIg0-yz5uZ-1" source="xq5jCsLg9rPU4HQZgbew-26">
          <mxGeometry width="50" height="50" relative="1" as="geometry">
            <mxPoint x="310" y="-340.5" as="sourcePoint" />
            <mxPoint x="450" y="-340" as="targetPoint" />
          </mxGeometry>
        </mxCell>
        <mxCell id="xq5jCsLg9rPU4HQZgbew-74" value="" style="endArrow=classic;html=1;rounded=0;entryX=0;entryY=0.5;entryDx=0;entryDy=0;" parent="1" edge="1" target="HwHLMF4vyIJIg0-yz5uZ-7">
          <mxGeometry width="50" height="50" relative="1" as="geometry">
            <mxPoint x="310" y="-240.43" as="sourcePoint" />
            <mxPoint x="410" y="-240" as="targetPoint" />
          </mxGeometry>
        </mxCell>
        <mxCell id="xq5jCsLg9rPU4HQZgbew-75" value="" style="endArrow=classic;html=1;rounded=0;exitX=1;exitY=0.5;exitDx=0;exitDy=0;" parent="1" source="xq5jCsLg9rPU4HQZgbew-16" edge="1">
          <mxGeometry width="50" height="50" relative="1" as="geometry">
            <mxPoint x="635" y="-679.9999999999999" as="sourcePoint" />
            <mxPoint x="85" y="-100" as="targetPoint" />
            <Array as="points">
              <mxPoint x="760" y="-680" />
              <mxPoint x="760" y="-400" />
              <mxPoint x="760" y="-100" />
            </Array>
          </mxGeometry>
        </mxCell>
        <mxCell id="HwHLMF4vyIJIg0-yz5uZ-1" value="Order&amp;nbsp;&lt;span style=&quot;background-color: initial;&quot;&gt;Approve&lt;/span&gt;" style="rounded=1;whiteSpace=wrap;html=1;" vertex="1" parent="1">
          <mxGeometry x="550" y="-350" width="120" height="40" as="geometry" />
        </mxCell>
        <mxCell id="HwHLMF4vyIJIg0-yz5uZ-2" value="Add&lt;span style=&quot;background-color: initial;&quot;&gt;&amp;nbsp;order&lt;/span&gt;" style="rounded=1;whiteSpace=wrap;html=1;" vertex="1" parent="1">
          <mxGeometry x="200" y="-360" width="120" height="60" as="geometry" />
        </mxCell>
        <mxCell id="HwHLMF4vyIJIg0-yz5uZ-4" value="" style="endArrow=none;html=1;rounded=0;exitX=1;exitY=0.5;exitDx=0;exitDy=0;" edge="1" parent="1" source="HwHLMF4vyIJIg0-yz5uZ-1">
          <mxGeometry width="50" height="50" relative="1" as="geometry">
            <mxPoint x="680" y="-310" as="sourcePoint" />
            <mxPoint x="130" y="-149.2000732421875" as="targetPoint" />
            <Array as="points">
              <mxPoint x="760" y="-330" />
              <mxPoint x="760" y="-140" />
              <mxPoint x="710" y="-110" />
              <mxPoint x="180" y="-100" />
            </Array>
          </mxGeometry>
        </mxCell>
        <mxCell id="HwHLMF4vyIJIg0-yz5uZ-5" value="select product" style="rounded=1;whiteSpace=wrap;html=1;" vertex="1" parent="1">
          <mxGeometry x="210" y="-270" width="120" height="60" as="geometry" />
        </mxCell>
        <mxCell id="HwHLMF4vyIJIg0-yz5uZ-10" value="" style="edgeStyle=orthogonalEdgeStyle;rounded=0;orthogonalLoop=1;jettySize=auto;html=1;" edge="1" parent="1" source="HwHLMF4vyIJIg0-yz5uZ-7" target="HwHLMF4vyIJIg0-yz5uZ-9">
          <mxGeometry relative="1" as="geometry" />
        </mxCell>
        <mxCell id="HwHLMF4vyIJIg0-yz5uZ-7" value="select supplier" style="rounded=1;whiteSpace=wrap;html=1;" vertex="1" parent="1">
          <mxGeometry x="368" y="-270" width="120" height="60" as="geometry" />
        </mxCell>
        <mxCell id="HwHLMF4vyIJIg0-yz5uZ-12" style="edgeStyle=orthogonalEdgeStyle;rounded=0;orthogonalLoop=1;jettySize=auto;html=1;exitX=1;exitY=0.5;exitDx=0;exitDy=0;" edge="1" parent="1" source="HwHLMF4vyIJIg0-yz5uZ-9">
          <mxGeometry relative="1" as="geometry">
            <mxPoint x="760" y="-240" as="targetPoint" />
          </mxGeometry>
        </mxCell>
        <mxCell id="HwHLMF4vyIJIg0-yz5uZ-9" value="add purchase" style="whiteSpace=wrap;html=1;rounded=1;arcSize=8;" vertex="1" parent="1">
          <mxGeometry x="530" y="-270" width="120" height="60" as="geometry" />
        </mxCell>
        <mxCell id="HwHLMF4vyIJIg0-yz5uZ-11" value="" style="endArrow=none;html=1;rounded=0;exitX=1;exitY=0.5;exitDx=0;exitDy=0;" edge="1" parent="1" source="HwHLMF4vyIJIg0-yz5uZ-9">
          <mxGeometry width="50" height="50" relative="1" as="geometry">
            <mxPoint x="660" y="-240" as="sourcePoint" />
            <mxPoint x="740" y="-240" as="targetPoint" />
            <Array as="points">
              <mxPoint x="700" y="-240" />
            </Array>
          </mxGeometry>
        </mxCell>
        <mxCell id="HwHLMF4vyIJIg0-yz5uZ-15" value="end" style="strokeWidth=2;html=1;shape=mxgraph.flowchart.display;whiteSpace=wrap;" vertex="1" parent="1">
          <mxGeometry x="40" width="100" height="60" as="geometry" />
        </mxCell>
      </root>
    </mxGraphModel>
  </diagram>
</mxfile>
